<mxfile host="app.diagrams.net" modified="2022-03-10T07:13:10.230Z" agent="5.0 (Macintosh; Intel Mac OS X 10_15_7) AppleWebKit/537.36 (KHTML, like Gecko) Chrome/90.0.4430.212 Safari/537.36 Edg/90.0.818.66" etag="bAYe755I-S-VnMMgp3Pb" version="17.1.0" type="github">
  <diagram id="KiHIBncPrK3UltLsDVOA" name="Page-1">
    <mxGraphModel dx="1378" dy="769" grid="1" gridSize="10" guides="1" tooltips="1" connect="1" arrows="1" fold="1" page="1" pageScale="1" pageWidth="827" pageHeight="1169" math="0" shadow="0">
      <root>
        <mxCell id="0" />
        <mxCell id="1" parent="0" />
        <mxCell id="IJyMUigLt-YQdbAdQ6ix-4" style="edgeStyle=orthogonalEdgeStyle;rounded=0;orthogonalLoop=1;jettySize=auto;html=1;entryX=0;entryY=0.75;entryDx=0;entryDy=0;" edge="1" parent="1" source="IJyMUigLt-YQdbAdQ6ix-1" target="IJyMUigLt-YQdbAdQ6ix-2">
          <mxGeometry relative="1" as="geometry" />
        </mxCell>
        <mxCell id="IJyMUigLt-YQdbAdQ6ix-1" value="BX-File&amp;nbsp;" style="shape=document;whiteSpace=wrap;html=1;boundedLbl=1;" vertex="1" parent="1">
          <mxGeometry x="90" y="190" width="120" height="90" as="geometry" />
        </mxCell>
        <mxCell id="IJyMUigLt-YQdbAdQ6ix-6" style="edgeStyle=orthogonalEdgeStyle;rounded=0;orthogonalLoop=1;jettySize=auto;html=1;entryX=0.5;entryY=1;entryDx=0;entryDy=0;entryPerimeter=0;" edge="1" parent="1" source="IJyMUigLt-YQdbAdQ6ix-2" target="IJyMUigLt-YQdbAdQ6ix-5">
          <mxGeometry relative="1" as="geometry" />
        </mxCell>
        <mxCell id="IJyMUigLt-YQdbAdQ6ix-2" value="Data-in Job" style="rounded=1;whiteSpace=wrap;html=1;" vertex="1" parent="1">
          <mxGeometry x="330" y="190" width="120" height="60" as="geometry" />
        </mxCell>
        <mxCell id="IJyMUigLt-YQdbAdQ6ix-8" style="edgeStyle=orthogonalEdgeStyle;rounded=0;orthogonalLoop=1;jettySize=auto;html=1;entryX=0;entryY=0.5;entryDx=0;entryDy=0;entryPerimeter=0;" edge="1" parent="1" source="IJyMUigLt-YQdbAdQ6ix-5" target="IJyMUigLt-YQdbAdQ6ix-7">
          <mxGeometry relative="1" as="geometry" />
        </mxCell>
        <mxCell id="IJyMUigLt-YQdbAdQ6ix-5" value="Kafka ODS" style="shape=cylinder3;whiteSpace=wrap;html=1;boundedLbl=1;backgroundOutline=1;size=15;direction=south;" vertex="1" parent="1">
          <mxGeometry x="550" y="190" width="130" height="60" as="geometry" />
        </mxCell>
        <mxCell id="IJyMUigLt-YQdbAdQ6ix-10" style="edgeStyle=orthogonalEdgeStyle;rounded=0;orthogonalLoop=1;jettySize=auto;html=1;entryX=0;entryY=0.5;entryDx=0;entryDy=0;entryPerimeter=0;" edge="1" parent="1" source="IJyMUigLt-YQdbAdQ6ix-7" target="IJyMUigLt-YQdbAdQ6ix-9">
          <mxGeometry relative="1" as="geometry" />
        </mxCell>
        <mxCell id="IJyMUigLt-YQdbAdQ6ix-7" value="Kafka View" style="shape=cylinder3;whiteSpace=wrap;html=1;boundedLbl=1;backgroundOutline=1;size=15;direction=south;" vertex="1" parent="1">
          <mxGeometry x="550" y="350" width="130" height="60" as="geometry" />
        </mxCell>
        <mxCell id="IJyMUigLt-YQdbAdQ6ix-12" style="edgeStyle=orthogonalEdgeStyle;rounded=0;orthogonalLoop=1;jettySize=auto;html=1;" edge="1" parent="1" source="IJyMUigLt-YQdbAdQ6ix-9">
          <mxGeometry relative="1" as="geometry">
            <mxPoint x="615" y="640" as="targetPoint" />
          </mxGeometry>
        </mxCell>
        <mxCell id="IJyMUigLt-YQdbAdQ6ix-9" value="Kafka DWD" style="shape=cylinder3;whiteSpace=wrap;html=1;boundedLbl=1;backgroundOutline=1;size=15;direction=south;" vertex="1" parent="1">
          <mxGeometry x="550" y="490" width="130" height="60" as="geometry" />
        </mxCell>
        <mxCell id="IJyMUigLt-YQdbAdQ6ix-15" value="Flink Job" style="text;html=1;strokeColor=none;fillColor=none;align=center;verticalAlign=middle;whiteSpace=wrap;rounded=0;" vertex="1" parent="1">
          <mxGeometry x="620" y="430" width="60" height="30" as="geometry" />
        </mxCell>
        <mxCell id="IJyMUigLt-YQdbAdQ6ix-16" value="Flink Job" style="text;html=1;strokeColor=none;fillColor=none;align=center;verticalAlign=middle;whiteSpace=wrap;rounded=0;" vertex="1" parent="1">
          <mxGeometry x="620" y="570" width="60" height="30" as="geometry" />
        </mxCell>
        <mxCell id="IJyMUigLt-YQdbAdQ6ix-28" value="Pos Promotion DB" style="shape=cylinder3;whiteSpace=wrap;html=1;boundedLbl=1;backgroundOutline=1;size=15;" vertex="1" parent="1">
          <mxGeometry x="580" y="640" width="76" height="120" as="geometry" />
        </mxCell>
      </root>
    </mxGraphModel>
  </diagram>
</mxfile>
